<svg version="1.2" xmlns="http://www.w3.org/2000/svg" viewBox="0 0 520 580" width="520" height="580"><defs><linearGradient id="P" gradientUnits="userSpaceOnUse"/><linearGradient id="g1" x2="1" href="#P" gradientTransform="matrix(0,-299.81,245.701,0,256.5,341.41)"><stop offset=".1" stop-color="#6abfa8"/><stop offset=".25" stop-color="#c59c9d"/><stop offset=".33" stop-color="#f18c99"/><stop offset=".49" stop-color="#f49e85"/><stop offset="1" stop-color="#ffd44d"/></linearGradient><linearGradient id="g2" x2="1" href="#P" gradientTransform="matrix(0,188.71,-421.088,0,264.71,356.27)"><stop stop-color="#6abfa8"/><stop offset=".6" stop-color="#648dc9"/><stop offset=".64" stop-color="#697eb9"/><stop offset=".73" stop-color="#74669e"/><stop offset=".82" stop-color="#7b548b"/><stop offset=".91" stop-color="#80497f"/><stop offset="1" stop-color="#82467c"/></linearGradient></defs><style>.a{fill:url(#g1)}.b{fill:url(#g2)}</style><path class="a" d="m141.6 240.7c-2.2-2.1-5.3-3.5-7.2-5.5 11.6-5.7 23.8-9.5 37-10.2 13.3-0.8 25.4 4.5 36.5 10.8 1-1.5 2.1-3.1 2.5-4.7-12.1-1.3-20.5-13.5-21.6-24.9h2.8c1.4 0 2.8-0.1 4.2 0 9.3 0.2 18.6 6.1 22.9 14.4 1.2-0.8 1.9-2.1 3.1-2.8-7.6-12.6-23.6-17.9-37.7-14.7 0.7 7.4 3.1 14.4 7.2 20.5-5.5-0.5-7.6-5.2-9.9-9.7-2.2-4.6-3.7-10.6-4.2-15.7 1.8-0.3 3.5-0.8 5.3-0.6h5.3c5.7 0 11 1.9 16.3 3.6-2.8-5-5.6-10.2-6.1-16 12.4 5.4 22.8 16.9 27.9 29.3 1.2-0.2 1.9-1.3 3.1-1.4-2.6-6.8-5.3-12.7-11-18-5.7-5.4-6.9-15.2-3.7-22.4 2.3 1.4 4.3 3.3 6.4 5 0.9 1 2.1 2 3 3 4 5.1 7.3 10.5 8.9 16.6 2.2-1.1 2.4 2.8 3.5 4.5 1.1 1.8 2 4.5 3.1 6.3 0.8 0 1.4-0.6 2.2-0.5-8-12.6-9.9-30.6-5.2-44.6 4.6-13.9 14.3-22.2 20.2-35.3 6.5 12.3 15.8 21.1 20.7 34.8 4.9 13.8 3.1 32.4-5.2 44.8 0.8 0.3 1.5 0.8 2.4 0.8 1.5-3.7 3.7-7.2 5-11 2.2 0.4 2.4-3.2 3.3-5 1-1.8 1.9-4.1 3.1-5.8 1.1-1.8 2.4-3.4 3.8-5.1 1.4-1.6 2.7-3.1 4.4-4.4 1.7-1.3 3.2-3.2 5.3-3.8 1.1 3.1 1.8 6.9 1.7 10.2-0.1 3.3-1.2 6.7-3 9.2-1.7 2.6-4 3.9-5.6 6.3-1.7 2.4-3.9 4.6-4.9 7.2-1 2.7-4.4 5.6-1.8 7.6 2.6 1.9 3.4-3.1 4.9-5.3 1.5-2.2 3-4.9 4.8-7.1 1.8-2.1 3.6-4.4 5.8-6.3 2.2-1.9 4.2-3.7 6.6-5.3 2.5-1.6 5.1-3.4 7.9-4.3-1.1 5.7-3.3 11.1-6.4 16 5.4-1.5 10.8-3.6 16.6-3.6h5.8c2.3 0 4.8 0.1 4.2 2.5-0.6 2.5-0.3 4.3-1.1 6.4-0.9 2-1.2 3.6-2 5.5-0.8 1.9-1.5 3.3-2.4 5-0.9 1.7-2 2.9-3 4.5-1.1 1.6-3.6 1.7-5.4 2.1 4-6.1 6.7-12.9 7.2-20.2-1.6-0.2-3-0.8-4.7-0.8-2.1-0.4-4.8-0.4-7.2-0.3-10.2 0.7-20.1 6.8-25.7 15.5 1.1 0.8 1.9 2 3.1 2.8 4.3-8.9 14.2-13.9 23.7-14.4h3.1c1 0 2.1-0.2 3 0.3-1.1 11.4-9.7 23.3-21.8 24.6 0.6 1.7 1.8 3.1 2.5 4.7 11.2-6 23.2-11.5 36.5-10.8 13.2 0.7 25.6 4.5 37.3 10.2-2.5 1.7-5.2 3.9-7.8 6.1-2.6 2.1-4.8 4.6-6.9 7.1-2.2 2.6-4.2 5.2-6.4 7.8-2.1 2.6-4.4 4.7-7 7.1-2.6 2.3-5.1 4-8.3 5.7-3.2 1.8-6.4 2.9-10.2 3.9-3.8 1.1-8.3 1.3-12.6 1.1-4.3-0.3-6.9-1.2-11.2-2.6-4.3-1.5-2.6-6.1-2.3-10.2 0.3-4.1-0.4-9.1-1.3-12.8-0.9-3.7-2.1-7.2-3.7-10.4-1.5-3.3-3.2-6-5.4-8.7-2.3-2.7-4.2-4.9-6.8-7.3-2.7-2.4-5.2-4-8.3-5.8-3.1-1.8-6.4-3.1-9.9-4.2-3.6-1.2-7.7-2-11.6-2.2-4-0.2-9.4 0.2-13 1.1-3.7 0.9-7.2 2.1-10.4 3.7-3.3 1.5-6.2 3-8.9 5.2-2.7 2.2-5 4.1-7.3 6.8-2.4 2.6-4.1 5.1-6 8.1-1.9 3.1-3.1 6.4-4.2 9.9-1.1 3.5-2.3 8-2.2 11.9-0.2 1.6-0.2 3.6 0 5.3 0 3.4 2 7.9-1.6 9.2-3.5 1.2-6.1 2.6-9.8 2.9-3.6 0.3-8.1 0.4-11.6-0.3-3.4-0.6-6.6-1.8-9.7-3-3-1.2-5.4-2.6-8-4.3-2.6-1.8-4.7-3.7-6.9-5.9-2.3-2.1-4.1-4.1-6-6.5-1.8-2.3-3.8-4.7-5.8-6.9-2-2.2-3.9-4.3-6.1-6.3zm100.4-59.7c1.2 4.2 0.6 9.1 0.8 13.5 0.2 4.5 1.9 7.7 3.3 11.7 1.4-0.4 2.7-0.7 4.2-0.6-6.5-11.7-3.6-27.6 6.6-36.2 9.5 9.3 12.8 24.5 6.1 36.2 1.5-0.2 2.9 0.4 4.4 0.6 1.5-4.8 3.8-10 3.3-15.2-0.4-5.3 1.5-11.8 0.5-16.9-1-5-3.1-8.6-6.1-12.4-3-3.8-5.5-6.4-8.8-9.7-5.9 7.5-13.8 14.2-14.3 24.3-0.3 1.5-0.3 3.2 0 4.7zm-98.8 34.3c3.4 0.4 5.7 2.4 6.4 5.8 0.3-3.6 3.5-5 6-6.4-3.6 0-5-3-6.3-5.5 0 3.9-3.3 4.8-6.1 6.1zm-2.7-34.1c2.7 1.1 4.4-3.6 1.6-4.3-2.8-0.7-4.3 3.1-1.6 4.3zm197.4-8.8c1.7-2.3 1.2-6.3 3.7-8.2 2.4-2 6-1.7 8.5-3.4-2.6-1.5-6.3-1.3-8.7-3.2-2.3-2-1.8-6.2-3.5-8.4-1.2 2.6-1.1 6.7-3.5 8.6-2.4 2-6.3 1.2-8.7 3.3 2.6 1.5 6.5 1.1 8.8 3.1 2.3 2 2 5.8 3.4 8.2zm-23.5-30.1c-10.4 8.5-23.2 13.1-33.2 22.4 1 3.5 2 7 2 10.8 0.1 1.4 0.1 3.2 0 4.7 0.1 1.1-0.3 2.7 0 3.6 4.5-6.4 10.9-12.2 17.7-15.8 1.2 4.1 2.7 8 2.7 12.4 0.2 1.3 0.2 2.7 0 3.9 0.1 1.2 0 2.3-0.2 3.3 3.4-2.3 7.3-5.1 11.2-6.4 4-1.3 1.9-3.4 2.3-6.3 0.4-2.9-0.8-5.2-1-7.8-0.2-2.7-1-4.9-1.5-7.4-0.5-2.5-1.1-4.8-1.1-7.5-0.1-1.2-0.1-2.6 0-3.8-0.2-2.2 0.6-4.1 1.1-6.1zm-131.9 79.4c-1.2-1.7-1.8-3.2-2.8-5-1.1-1.7-1.7-3.3-2.5-5.3-0.8-2-1-3.5-1.6-5.8-0.7-2.2-0.6-3.8-1.4-6.3-0.8-2.6 0.3-4.3 3.1-4.1 2.8 0.2 4.3-0.8 6.8-0.6 2.6 0.1 5.1-0.1 7.5 0.3 2.3 0.4 3.9 0.8 6.1 1.3-1.8-3.6-3.3-7.3-3.6-11.3-9.5-3.2-19.6-5-29.9-5h-5.2c-2.1-0.1-4.1 0.1-6.1 0.3 11.4 11.4 9.6 28.5 17.7 41.5 3.9-0.2 8-0.7 11.9 0zm173.4-6.7c3.4 0.6 5.5 2.8 6.4 6.1 0-3.9 3.5-4.9 6-6.4-3.3-0.2-5.5-2.2-6-5.5-0.8 3.2-3.1 5.3-6.4 5.8zm10.3-17.2c3.8 1.6 6.3-4.8 2.4-6-3.8-1.2-6.1 4.3-2.4 6zm5.3-16.6c2.6 1.1 4.3-3.6 1.6-4.3-2.6-0.7-4.3 3.2-1.6 4.3zm-32.2 14.5c-0.6 9.4-3.4 18.5-8.6 26.2 2.4-0.5 5-0.5 7.5-0.5 1.1 0 3.4 0.4 4.4 0 8.4-12.7 6.2-30.2 18-41.2-3.8-0.5-8.3-0.2-12.2-0.3-3.8-0.1-7.8 0.6-11.4 1-3.6 0.4-7.1 1.1-10.5 2-3.3 0.8-7.4 1.1-7.7 4.7-0.2 3.7-2.3 5.6-3.3 8.9 7.5-2.7 16.1-2.2 23.8-0.8zm-136-12.3c2.3 1.5 4.8 2.7 6.9 4.3-0.3-0.7-0.3-1.3-0.3-2-0.4-2.1-0.3-4.8 0-6.9 0.3-3.9 1.6-7.5 3-11.1 6.2 4.5 12.8 9.3 17.2 15.8-0.2-6.1 0-12.9 1.9-18.8-9.6-9.6-22.7-13.8-32.9-22.4 3.6 11-2.5 21.4-2.5 32.4 0 1.4-0.1 2.9 0 4.4 0.5 2.6 4.5 2.9 6.7 4.3zm-28.3-10.9c1.6-2.4 1.3-6.3 3.7-8.3 2.4-1.9 6-1.7 8.5-3.4-2.6-1.7-6.5-1.2-8.8-3.4-2.2-2.1-1.5-6.4-3.6-8.2-0.8 2.6-0.9 6.9-3.2 8.8-2.2 1.9-6.2 1.1-8.5 3.1 2.6 1.5 6.2 1.2 8.5 3.1 2.4 1.9 2 5.9 3.4 8.3zm29-41.5c4.5 0.8 5.8-6 1.5-7-4.6-0.9-6 6.2-1.5 7zm104.1 0.2c4.4 0.9 5.7-6.5 1.4-7.2-4.6-0.7-5.8 6.4-1.4 7.2zm-83.1 8.1c1.9 1.4 1.5 5.1 3.1 6.3 1.1-1.9 1.1-5 3.1-6.4 1.9-1.3 4.7-1 6.3-2.7-2.1-1.3-5-1.1-6.8-2.8-1.8-1.8-1.2-5.3-3.1-6.6-0.7 2-0.7 5.5-2.5 7-1.7 1.5-4.8 1.1-6.7 2.4 1.4 1.8 4.7 1.4 6.6 2.8zm60.4 6.3c1.3-1.6 1.1-5 3-6.4 1.9-1.3 5-1 6.7-2.7-2.1-1.2-5.2-1.1-7-2.7-1.8-1.6-1.3-5-2.7-6.7-1.3 1.8-1 5.6-2.9 7.1-1.8 1.5-5.5 0.8-6.8 2.9 2 1 5 0.9 6.9 2.2 1.8 1.4 1.3 4.8 2.8 6.3zm10.8 172.8c2 2.4 0.9 6-2.3 7-3.1 0.9-6.2 1.7-9.6 1.7h-5.8c-14.8 0-27.1-6.7-40.7-10.6 3.4-1.7 7.6-1.2 11.4-1.9 3.7-0.7 5.7 3.3 9.1 4.1 3.4 0.9 7.3 2.3 11.1 2.3 3.7-0.1 7.8 0 10.7-2.5-4-1.3-9.6 0.4-13.8-0.6-4.2-1-7.9-0.7-11.1-4.1-3.2-3.3-8.4-1.2-12.4-1.1-3.9 0-8.7 1.3-9.7 5.5 5.7 0.9 11.3 2.3 16.3 5-2.2 1.4-5.5 1.6-8.5 2.2-3 0.6-6.5 1-9.7 1.1h-5.8c-3.1 0-6-0.5-8.4-2.7-2.4-2.2-0.4-5.8 2-7.3 2.3-1.6 4.3-3.3 6.9-4.5 2.5-1.2 5.1-2.4 7.8-3.5 2.7-1 5.2-2 7.9-3.1 2.7-1.1 4.5-3 5.6-5.8 1.2-2.7 1.4-6.8 0.9-9.9-0.6-3.1-1.4-6-2.5-8.9-1.1-2.8-1.9-5.1-3.1-8-1.1-2.8-1.9-5.6-2.6-8.7-0.6-3.1-1.3-6.7-1.2-10.1 0-3.3-0.2-7.9 0.2-11 0.4-3.2 2.2-4.8 4-7.2 1.8-2.3 3.2-3.7 5.2-6 2-2.4 3.5-3.3 5.2-6.3 1.7-2.9 0.4-5.9 1.7-9.6 1.2-3.7 4.3 0.3 3.7 3.5-0.6 3.2 1.4 6 3 8.4 1.6 2.3 3.4 3.8 5.2 6 1.9 2.2 3.5 3.7 5.3 6.1 1.8 2.4 2.5 5.4 2.4 8.7-0.1 3.2 0.2 7.8-0.2 11-0.4 3.3-0.8 6.7-1.7 9.7-0.9 3-1.9 5.5-3 8.4-1.1 2.8-2 5.1-3 8-1 2.9-1.7 6.4-1.8 9.6 0 3.2 0.8 6.3 2.6 8.8 1.8 2.5 4.3 3.3 6.9 4.4 2.7 1.1 5.3 2 8 3.1 2.6 1.1 5 2.4 7.5 3.8 2.5 1.5 4.4 2.6 6.4 5zm-159.7-16.5h0.3q41.5 0 83 0 0.7 0 1.3 0c0.2 0 0.4 0 0.6 0 3.7-0.8 2.3-5-0.5-5.6-9.3-0.8-18.9 0.2-28.3 0-9.3-0.2-18.9-0.3-28.2 0-9.2 0.3-18.7-1-27.9 0-3 0.7-3.8 4.8-0.3 5.6zm84.1-51.7c2.3 0.5 2.6 1.8 5.1 2.3 2.4 0.5 2.3-2.8 0.1-3.1-2.3-0.3-2.9-2.1-4.9-2.6-3-0.6-2.6 2.9-0.3 3.4zm-12.2 34.2c-3.8-0.2-7.8 0.1-11.6 0-3.8 0-7.8 0-11.6 0-3.8 0-7.9-0.1-11.6 0-3.8 0.1-8.1-0.2-11.7 0-3.5 0.3-8.3-0.5-11.6 0-3.2 0.6-8.4-2-9.7 2-1.2 4 4.9 4.2 8.1 3.9 3.2-0.4 8 0.1 11.6 0 3.5-0.2 7.9 0 11.6 0 3.7-0.1 7.8 0 11.6 0 3.8 0 7.8-0.1 11.6 0 3.9 0 7.8-0.2 11.7 0 3.8 0.1 7.8-0.3 11.6 0 3.8 0.2 7.9-0.7 11.6 0 3.7 0.6 5.5-4.8 1.9-5.9-3.6-1-8.1 0.5-11.9 0-3.7-0.5-7.8 0.3-11.6 0zm10.7-24.8c2.2 0.8 2.9 0.7 5 1.4 2.2 0.7 3.1-2.2 1-2.6-2.1-0.4-2.9-1.3-4.8-1.6-2.4-0.4-3.3 2.1-1.2 2.8zm-21.5 64.1c-3.8 0.1-7.7 0-11.6 0-3.8 0-7.8 0.2-11.6 0-3.8-0.1-4.8 4.6-1.1 5.5 4.1 0.6 8.6 0 12.7 0 4.1 0 8.6 0.6 12.7 0 3.8-0.9 2.7-5.6-1.1-5.5zm36.3-89.9c-1.9-0.8-2-3.8-3.9-4.4-3.1-1-2.2 3.3-0.3 4.1 1.9 0.9 1.7 3.7 4.1 4.3 2.4 0.5 2.1-3.3 0.1-4zm142.1 78.6c-7.1-0.9-14.6 0.3-21.8 0-7.2-0.3-14.7 0-21.9 0-7.2 0-14.4-0.4-21.6 0-3.5 0.2-4.1 4.4-0.8 5.5 5.3 1 11-0.4 16.3 0 5.4 0.4 11.2-0.1 16.6 0 5.5 0.1 10.9 0.3 16.4 0 5.4-0.2 11.2 0.7 16.6 0 3.2-0.8 3.7-4.7 0.2-5.5zm-173.4 0c-7.1-0.8-14.7 0.3-21.8 0-7.2-0.4-14.4 0-21.6 0-7.2-0.1-14.4-0.2-21.6 0-3.5 0-5.1 4.1-1.4 5.5 4.2 1 9-0.4 13.3 0 4.3 0.4 8.9-0.1 13.3 0 4.4 0.1 8.9 0.1 13.3 0 4.4-0.1 8.9 0.4 13.3 0 4.3-0.4 9.3 1 13.5 0 3.2-1.2 3-4.8-0.3-5.5zm173.7-16.1c-5.5-0.9-11.5 0.5-17.1 0-5.6-0.4-11.3 0.2-16.9 0-5.6-0.1-11.3 0-16.9 0-5.6 0-11.2-0.2-16.8 0-5.6 0.2-11.3-0.5-16.9 0-1.4 0.3-2.9 1.2-2.8 2.8 0.2 1.6 1.2 2.6 2.5 2.8h84.4c0.1 0 0.4 0 0.5 0 3.1-0.8 2.8-4.7 0-5.6zm-37.6 27.4c-3.8 0.1-7.6 0.1-11.3 0-3.8-0.1-8 0.4-11.6 0-3.7-0.4-5.6 4.2-2 5.5 4 1 8.9-0.1 13 0 4.1 0.2 8.9 0.6 13 0 3.9-1 2.7-5.6-1.1-5.5zm-113.4-56.7c-1.6-0.4-4.1 0.1-5.7 0.1-1.7 0-1.6 3 0.2 3 1.8-0.1 3.7-0.2 5.5-0.3 1.8-0.1 1.6-2.4 0-2.8zm42.1-12.4c1.3-5.1 0.5-12.4-2.6-16.6-3.1-4.2-5.1-7.8-8.3-11.9-3.2 4-5.2 7.8-8.3 12.1-3.1 4.3-3.8 11.6-2.4 16.7 1.3 5 1.9 10.7 6.9 13.2 3-4.6-1.8-7.9-2.6-12.4-0.8-4.4 1.1-10.2 6.4-10.2 5.4-0.1 7.3 5.8 6.5 10.3-0.8 4.4-5.7 7.7-2.6 12.3 5-2.5 5.6-8.4 6.9-13.5zm16.6-25.5c-1.9 0-2.9 3.6-4.3 4.3-1.5 0.7-3.2 4.5-1 4.6 2.3 0.1 2.8-3.6 4.4-4.2 1.6-0.7 3.5-4.6 0.9-4.7zm9.7 17.7c-1.8-0.8-3.8 1.9-5.5 2-1.6 0.2-3.9 2.6-2 3.6 1.8 1 3.5-1.9 5.1-1.9 1.5 0 4.3-2.7 2.4-3.7zm-3.9-9.1c-1.7-0.6-3.4 2.3-4.8 2.7-1.3 0.5-3.8 3.1-1.8 4 1.9 0.8 3.4-2.4 4.9-2.6 1.5-0.2 3.9-3.4 1.7-4.1zm-142.7-45.9c3.9 1 1.6 7.7-2.2 6.1-3.8-1.6-1.6-7 2.2-6.1zm198.9 47.8c-2.9-0.7-7.1-1.6-9.4 0 4.8 0.5 9.5 2.3 13.5 4.7-8.4 12.9-24.6 20-39.5 15.3v3c17 5.4 35.6-4.6 43.7-19.9-2.7-1.2-5.5-2.4-8.3-3.1zm-37.9 3.4c0.3 5.2 6.4 3.9 10.8 4.4 4.3 0.5 10.4-0.4 14.9 0-5.6 6.8-16 6.1-23.8 4.1-0.6 4.3 4.2 4.4 7.5 4.7 3.2 0.4 7.9 0 10.9-1 2.9-0.9 5.6-2.1 8-3.9 2.3-1.7 4.5-3.6 6-5.8-4.6-1.1-9-2.3-13.9-2.3-1-0.1-2.3-0.2-3.6-0.2-2.7-0.2-5.7 0.3-8.3-0.3 8.7-4.1 18.2-5.7 27.4-8.3-4.2-0.8-9.7-0.1-13.8 0.8-4.1 0.9-7.2 2.4-11 4-3.8 1.5-6.6 4.7-11.1 3.8zm-7.8-17.4c2.2 2.2 6.1-0.3 8.3-1.5 2.2-1.1 4.3-3.3 5.8-5.5 1.6-2.1 3.1-4.9 3.9-7.4-3 0-6.6 1.1-9.2 2.1-2.6 1-4.9 2.7-6.8 4.6-1.8 1.8-4.3 5.5-2 7.7zm-22.4-16.1c0.9 0.5 1.8 0.9 2.8 1.4 2.3-5.1 5-9.7 8-14.4 3-4.6 7.5-9 7.5-14.9-9.1 6.8-14.1 17.7-18.3 27.9zm-16.9-22.4c-1-4.1-2.2-6.3-4.4-9.7-2.3 3.3-3.4 5.9-4.4 10-1 4-0.5 8.3 0.8 12.4 1.3 4.1 6.1 4.1 7.4-0.1 1.2-4.2 1.6-8.6 0.6-12.6zm-8.3-19.4c0.9-1 1.9-2.3 3.1-3 2.1-0.7 3.6 2.4 5.4 3.9 1.9 1.6 3.1 4.1 4.5 6.1 1.3 2.1 2.7 5 3.1 7.4 0.7-2.3 0.1-5.4-0.3-7.7-0.4-2.3-1.3-4.3-2.3-6.3-1-2.1-2.2-3.1-3.5-5-1.3-2-2.7-2.4-4.1-4.6-1.4-2.2-2.7-1.9-4.1 0.2-1.5 2.1-2.7 2.6-4 4.5-1.4 1.9-2.5 3.1-3.5 5.2-1 2-1.9 4-2.3 6.2-0.4 2.3-0.9 5.3-0.2 7.5 1.4-5.4 4.6-10.1 8.3-14.4zm-20.2 42.9c0.9-0.2 1.8-0.7 2.7-0.8-3.7-10.4-9-20.9-17.7-28.2-0.5 6 4.2 10.4 7.2 15 2.9 4.5 5.3 9.2 7.8 14zm-19.6 15c2.2-2.1-0.2-6-2.1-7.8-1.8-1.7-4.2-3.5-6.8-4.5-2.5-1-5.9-2.3-8.9-2.2 0.5 2.6 2.1 5.7 3.7 7.7 1.6 2 3.6 4.4 5.8 5.5 2.2 1.2 6.1 3.4 8.3 1.3zm-43.8 8.8c9.1 2.7 18.9 3.7 27.1 8.6-8.8 0-17.7-0.4-25.7 2.7 7.7 9.4 20.7 13 32.1 9.1 0.3-1 0.1-2.2 0.5-3.3-7.9 2-18.4 2.7-24-4.1 4.6-0.4 10.8 0.5 15.2 0 4.4-0.5 10.3 0.7 10.8-4.4-6.4 0.3-10.8-4.3-16.7-6-5.9-1.8-12.8-3.9-19.3-2.6zm-10.5 8c1.2 3.1 3.6 5.7 5.9 8.3 2.2 2.5 4.5 4.8 7.3 6.7 2.9 1.9 5.9 3.5 9.2 4.6 3.4 1.2 8.5 2.3 12.2 2 3.7-0.3 10 0.3 9.4-4.5-11.5 3.6-23.7 0.5-32.6-7.2-1.1-1-2.3-2.2-3.4-3.3-1.3-1.5-2.6-3.1-3.6-5 4.2-1.9 8.5-3.7 13-4.4-2.3-1.6-6.6-0.7-9.3 0-2.8 0.8-5.3 2-8.1 2.8zm135.6 14.4c-1.8-0.7-3.7 1.2-5.5 1.1-1.8-0.1-3.1 2.3-1.2 3.1 1.8 0.7 3.4-1.4 5.1-1.1 1.7 0.3 3.6-2.4 1.6-3.1zm-8.3 21.8c2.4 0.9 3.7-2.5 1.3-3-2.4-0.6-3.8 2.1-1.3 3zm-57.2-37.7c-2-0.5-2.6-3-4.5-3.2-2.8-0.4-1.9 3.3 0.2 3.6 2.1 0.3 2.1 3.2 4.6 3.2 2.4 0 1.7-3.1-0.3-3.6zm64.3 29.1c1.8-0.1 1.8-2.6 0.3-3-1.5-0.5-3.9 0.2-5.5 0-1.6-0.3-1.9 2.9-0.3 3 1.7 0.1 3.8 0 5.5 0zm-67.4 8.6c2.3 1.1 4.2-2.4 1.9-3.1-2.2-0.6-4.2 2-1.9 3.1zm12.2-54.2c-2-0.3-2.1 2.8-0.8 3.8 1.2 1 0.7 3 2.7 3.4 2 0.4 1.8-2.8 0.6-3.7-1.1-0.9-0.9-3.3-2.5-3.5zm45 65.8q6.1 0 12.2 0c4.1 0 8.1 0 12.2 0 4 0 8.1 0 12.1 0 4.1 0.1 7.9-0.1 11.9 0 4 0.1 8.2-0.2 12.2 0 4 0.2 8.3-0.4 12.2 0 3.9 0.4 8.4-0.9 12.1 0 3.8 0.9 6.8-4 3.1-5.5-3.7-1.5-8 0.2-11.9-0.3-3.9-0.5-8.2 0.2-12.2 0-3.9-0.2-8.2 0.1-12.1 0-4-0.1-8 0.1-11.9 0-4-0.1-8.3 0.1-12.2 0-3.9-0.1-8.4 0.2-12.2 0-3.7-0.2-8.8 0.3-12.1 0-3.4-0.3-8.9 0.1-7 4.4 0.7 1.1 2.7 1.3 3.6 1.4zm-9.9-58.6c2.5 0.6 1.6-2.6 2.8-3.3 1.2-0.7 1.6-3.7-0.1-3.9-1.9-0.3-5.2 6.6-2.7 7.2zm-16.3-146.9q2-10.6 9.1-17.7 7-7 17.9-9.1-23.4-3.8-27-27-4.1 22.9-27.3 27 10.9 1.6 18 8.8 7 7.1 9.3 18z"/><path class="b" d="m91.6 471.7l-28.4 0.1q4.9-2 8.4-4.6 3.5-2.6 7-7.9 3.5-5.3 5.8-13l8.2-26.9q2.5 0.1 5 0l-8.2 27q-3.2 8.4-3.1 13.6 0.2 5.2 5.3 11.7zm29.8-68.2q-3.6 5.4-9.6 8.6-6 3.2-12.3 3.5-6.3 0.2-12.2-1.3-6-1.5-10.4-5.3-4.4-3.7-5.7-8.9-2.1-7.6 0-15.2 2-7.6 7.3-13.2 5.3-5.7 13-9.9 7.7-4.1 17-5.2 9.2-1 19.1 0.9 5.6 1.3 10 3.8 4.4 2.5 7.1 5 2.7 2.5 5.2 6.8 2.5 4.2 3.8 7.2 1.2 2.9 3.3 8.5 2.3 6.2 6.4 17.5 4 11.3 7.5 20.5 3.4 9.2 6.9 17.4 10.9 25.6 15.8 27.6h-45.4q2-1.7 2.2-5.6 0.3-3.8-0.6-6.9-0.8-3-2.7-8.9-0.1-0.6-0.2-0.9-0.1-0.3-0.2-0.7-0.2-0.5-0.3-0.9-8.5-27.2-24.3-66.9 0-0.1-0.1-0.4-1.5-3.5-2.6-5.8-1.1-2.3-3.4-5.7-2.4-3.5-5.7-4.8-3.3-1.3-7.3-0.2-8 2.2-9.7 12.4-1.7 10.3 5.9 19.2 7.5 9 22.2 7.8zm-3.2 20.9q2.3 15 17.5 17.5-7.1 1.3-11.6 5.8-4.6 4.6-5.9 11.5-1.5-7-6-11.7-4.6-4.6-11.7-5.6 15-2.7 17.7-17.5zm149.3 4.8l28.2-67.7h33.8q-2.9 6.3-3.7 31.4-0.9 25.1 0.3 49.4 1.1 24.3 3.4 29.5h-38.7q5.7-11.2 4.9-64v-33.3l-40.7 97.3h-5.2l-24.4-86.2q-1.1-3.1-1.6-4.7-0.6-1.5-2.2-4.8-1.6-3.3-3.3-5.1-1.7-1.6-4.5-2.8-2.8-1.2-6-0.5-5.6 1.4-8.4 7.1-2.9 5.8-2 13.1 1.1 9.2 7.9 15.7 6.8 6.5 18.7 6.2-4.6 7.1-13.1 9.9-8.5 2.7-16.5 1.1-8.1-1.6-14.3-7.4-6.3-5.8-7-14.3-0.8-8.1 3.2-16.6 4-8.4 11-12.8 5.7-3.9 13.5-5.8 7.7-2 15.3-2h32.7l18.7 67.3zm-41.2 42.5l-28.4 0.1q11.9-5.9 11.9-24.5v-21.8q2.6-0.9 5.1-2.2v24q0 6.1 1.4 11.1 1.4 4.9 3.9 8.2 2.6 3.2 6.1 5.1zm134.2 0l-28.4 0.1q4.9-2 8.4-4.6 3.5-2.6 7-7.9 3.4-5.3 5.8-13.1l8.2-26.9q2.5 0.2 5 0l-8.2 27.1q-3.2 8.4-3.1 13.6 0.1 5.2 5.3 11.7zm29.8-68.2q-3.7 5.4-9.6 8.6-6 3.1-12.3 3.4-6.3 0.3-12.2-1.2-6-1.6-10.4-5.3-4.4-3.8-5.7-8.9-2.1-7.6 0-15.2 2-7.6 7.3-13.2 5.3-5.7 13-9.9 7.7-4.2 17-5.2 9.2-1 19.1 0.9 5.6 1.3 10 3.8 4.4 2.5 7.1 5 2.7 2.5 5.2 6.8 2.5 4.2 3.8 7.2 1.2 2.9 3.3 8.5 2.3 6.2 6.4 17.5 4 11.3 7.5 20.5 3.4 9.2 6.9 17.4 10.9 25.6 15.8 27.6h-45.4q2-1.8 2.2-5.6 0.3-3.8-0.6-6.9-0.8-3.1-2.7-8.9-0.1-0.6-0.2-0.9-0.1-0.3-0.2-0.8-0.2-0.4-0.3-0.8-8.5-27.2-24.3-66.9 0-0.1-0.1-0.4-1.5-3.6-2.6-5.8-1.1-2.3-3.4-5.8-2.4-3.4-5.7-4.7-3.3-1.4-7.3-0.2-8 2.2-9.7 12.4-1.7 10.2 5.9 19.2 7.5 9 22.2 7.8zm-3.2 20.8q2.3 15 17.5 17.5-7.1 1.4-11.6 5.9-4.6 4.6-5.9 11.5-1.5-7.1-6-11.7-4.6-4.6-11.7-5.7 15-2.6 17.7-17.5zm-295.3 108.1h-5.2l-3.5-26.6-10 18.3-10.2-18.3-3.5 26.6h-5.3l5-35.1h4.2l9.7 17.4 9.6-17.4h4.3c0 0 4.9 35.1 4.9 35.1zm31.4-3.1l-0.8 3.6h-0.4q-1.5 0-2.6-0.2-1.1-0.2-1.8-0.6-0.7-0.4-1.2-1.1-0.5-0.7-1-1.7-3.3 3.6-7.9 3.6-3.6 0-5.8-2-2.2-2-2.2-5.1 0-2.6 1.5-4.3 1.4-1.6 3.7-2.6 2.2-1 5-1.5 2.7-0.4 5.3-0.4 0-3.3-1.4-4.5-1.3-1.2-4.3-1.2-3.3 0-6.8 2.2l-0.6-3.7q3.4-2.5 8.7-2.5 2.5 0 4.2 0.6 1.8 0.6 2.8 2 1.1 1.4 1.6 3.7 0.5 2.2 0.5 5.5v5q0 2.9 0.6 4 0.5 1.2 2.4 1.2h0.4zm-8.1-3.3v-5.9q-5.7 0.2-8.2 1.4-2.4 1.2-2.4 4 0 3.8 4 3.8 1.9 0 3.7-0.9 1.7-0.9 2.9-2.4zm23.3 6.9q-5.6 0-8.8-2.2l0.6-4.3q1 0.9 3.2 1.7 2.2 0.8 4.8 0.8 5.2 0 5.2-3.1 0-2.7-5.2-4.1-1.6-0.3-3-0.8-1.4-0.5-2.5-1.2-1.1-0.8-1.8-2-0.7-1.2-0.8-3 0-3.2 2.4-5.3 2.3-2.1 7.3-2.1 3.5 0 7 1.6l-0.6 4.1q-2.7-2.2-6.3-2.2-5 0-5 3.4 0 0.8 0.2 1.3 0.3 0.6 1 1 0.7 0.4 1.8 0.9 1.2 0.4 3 0.9 1.1 0.3 2.4 0.8 1.3 0.5 2.4 1.4 1.1 0.8 1.8 2.1 0.8 1.2 0.8 3 0 1.2-0.5 2.5-0.4 1.3-1.5 2.4-1.1 1-3 1.7-1.9 0.7-4.9 0.7zm26 0q-5.6 0-8.8-2.1l0.6-4.4q1 0.9 3.2 1.7 2.2 0.8 4.8 0.8 5.2 0 5.2-3.1 0-2.7-5.2-4-1.6-0.4-3-0.9-1.4-0.4-2.5-1.2-1.1-0.8-1.8-2-0.7-1.2-0.8-3 0-3.2 2.4-5.3 2.3-2.1 7.3-2.1 3.5 0 7 1.6l-0.6 4.2q-2.7-2.3-6.3-2.3-5 0-5 3.4 0 0.8 0.3 1.4 0.2 0.5 0.9 0.9 0.7 0.5 1.8 0.9 1.2 0.4 3 0.9 1.1 0.3 2.4 0.8 1.3 0.5 2.4 1.4 1.1 0.8 1.8 2.1 0.8 1.3 0.8 3 0 1.2-0.4 2.5-0.5 1.3-1.6 2.4-1.1 1-3 1.7-1.9 0.7-4.9 0.7zm40.4-3.6l-0.7 3.6h-0.4q-1.6 0-2.7-0.1-1-0.2-1.7-0.6-0.8-0.5-1.3-1.2-0.5-0.7-1-1.7-3.2 3.6-7.9 3.6-3.6 0-5.8-2-2.1-1.9-2.1-5.1 0-2.6 1.4-4.2 1.5-1.7 3.7-2.7 2.3-1 5-1.4 2.7-0.4 5.3-0.5 0-3.3-1.3-4.5-1.4-1.2-4.3-1.2-3.4 0-6.8 2.2l-0.7-3.6q3.5-2.6 8.7-2.6 2.5 0 4.3 0.6 1.7 0.7 2.8 2.1 1.1 1.3 1.6 3.6 0.5 2.3 0.5 5.5v5q0 2.9 0.5 4.1 0.5 1.1 2.4 1.1h0.5zm-8.2-3.3v-5.9q-5.7 0.2-8.1 1.5-2.5 1.2-2.5 3.9 0 3.8 4 3.8 1.9 0 3.7-0.9 1.8-0.9 2.9-2.4zm26.3 19q-3.1 0-5.3-0.6-2.3-0.6-3.8-1.6-1.5-1.1-2.3-2.4-0.7-1.4-0.7-2.8 0-4 4.6-5.6-2.6-1.2-2.6-3.1 0-0.8 0.7-1.8 0.7-1.1 2.3-1.8-4.5-3.1-4.5-8.1 0-2.1 0.7-3.9 0.8-1.8 2.1-3.1 1.4-1.4 3.3-2.1 2-0.7 4.5-0.7 3.5-0.1 6.6 1.8 2.7-1.4 6.2-1.4h0.5l-0.6 3h-1.2q-1.7 0-3.1 0.3 2.4 2.7 2.4 5.9 0 1.9-0.8 3.7-0.7 1.8-2 3.1-1.4 1.4-3.3 2.2-1.9 0.8-4.4 0.8-2 0-3.7-0.5-1.2 0.7-1.2 1.5 0 0.5 0.3 0.8 0.3 0.3 1.1 0.6 0.9 0.2 2.5 0.5 1.5 0.3 4.1 0.8 1.7 0.3 3.6 0.7 1.8 0.4 3.3 1.2 1.5 0.8 2.5 1.9 1 1.2 1.1 3 0 1.5-0.9 2.9-0.9 1.5-2.5 2.5-1.7 1.1-4.1 1.7-2.4 0.6-5.4 0.6zm1.2-11.2q-0.9 0-4.7-0.6-1.8 0.5-2.9 1.7-1.2 1.3-1.2 2.6 0 1.7 2.1 2.9 2 1.1 5.7 1.1c2.4 0 4.5-0.4 5.9-1.2q2-1.2 2-2.7 0-2.6-6.9-3.8zm-2.2-22.8q-2.9 0-4.5 1.6-1.5 1.7-1.5 4.5c0 1.8 0.5 3.4 1.7 4.5q1.7 1.7 4.4 1.7c1.8 0 3.4-0.6 4.5-1.8q1.6-1.9 1.6-4.6c0-1.8-0.5-3.4-1.7-4.4q-1.6-1.5-4.5-1.5zm43.2 9.1h-18.7q0.8 8.8 9.7 8.8 3.9 0 7.4-1.4l0.6 3.5q-4.6 1.9-8.6 1.9-3.3 0-5.9-1-2.6-1-4.4-2.7-1.8-1.7-2.7-4.1-1-2.4-1-5.2c0-1.8 0.3-3.4 0.9-4.9q0.9-2.3 2.5-4 1.7-1.7 4-2.7 2.4-1 5.3-1 2.4 0 4.5 0.7 2.1 0.7 3.5 2.1 1.5 1.3 2.3 3.3 0.8 1.9 0.8 4.3 0 1.4-0.2 2.4zm-11-8.8q-5.8 0-7.3 5.7h13.6q0-2.7-1.6-4.2-1.6-1.5-4.7-1.5zm58.3 8.8h-18.7q0.8 8.8 9.7 8.8 3.9 0 7.4-1.4l0.6 3.5q-4.6 1.9-8.6 1.9-3.3 0-5.9-1-2.6-1-4.4-2.7-1.8-1.7-2.7-4.1-1-2.4-1-5.2c0-1.8 0.3-3.4 0.9-5q0.9-2.3 2.5-3.9 1.7-1.7 4-2.7 2.4-1 5.3-1 2.4 0 4.5 0.7 2.1 0.7 3.5 2.1 1.5 1.3 2.3 3.3 0.8 1.9 0.8 4.3 0 1.4-0.2 2.4zm-11-8.8q-5.8 0-7.3 5.7h13.6q0-2.7-1.6-4.2-1.6-1.5-4.7-1.5zm33.8 18l-0.4 3.6h-4.3q-3.4 0-5.1-1.7-1.6-1.7-1.6-4.2v-15.7h-4.5l0.5-3.5h4v-6.1l4.7-0.4v6.5h6.8v3.5h-6.8v13q0 1.7 0.1 2.7 0.1 1 0.6 1.5 0.5 0.6 1.6 0.7 1.2 0.1 3.2 0.1c0 0 1.2 0 1.2 0zm47.5-21.5l-15.8 36.8h-5.3l6-13.3-10.8-23.5h5.3l8.1 18.3 7.2-18.3zm27.9 21.5q-3.4 3.6-9.3 3.6-3 0-5.4-1-2.4-0.9-4-2.7-1.7-1.7-2.5-4-0.9-2.4-0.9-5.1c0-1.8 0.3-3.5 0.9-5.1q0.9-2.3 2.5-4 1.7-1.7 4.1-2.7 2.4-1 5.3-1 2.9 0 5.3 1 2.4 0.9 4 2.7 1.7 1.7 2.6 4 0.9 2.4 0.9 5.1 0 5.5-3.5 9.2zm-3.5-15.7q-2-2.3-5.8-2.3-3.8 0-5.9 2.3-2.1 2.3-2.1 6.5 0 4.2 2.1 6.5 2.1 2.3 5.9 2.3c2.5 0 4.5-0.8 5.9-2.4q2.1-2.3 2.1-6.4c0-2.7-0.7-5-2.2-6.5zm26.4 31.3q-3.1 0-5.4-0.6-2.2-0.6-3.7-1.6-1.5-1-2.3-2.4-0.7-1.3-0.7-2.8 0-3.9 4.6-5.5-2.7-1.2-2.7-3.1 0-0.9 0.7-1.9 0.8-1 2.4-1.8-4.5-3-4.5-8 0-2.1 0.7-3.9 0.7-1.8 2.1-3.2 1.3-1.3 3.3-2.1 2-0.7 4.5-0.7 3.4 0 6.5 1.8 2.8-1.4 6.3-1.4h0.4l-0.5 3h-1.3q-1.6 0-3 0.4 2.4 2.7 2.4 5.8 0 2-0.8 3.7-0.7 1.8-2.1 3.2-1.3 1.3-3.2 2.1-2 0.8-4.4 0.8-2 0-3.7-0.4-1.2 0.7-1.2 1.5 0 0.4 0.3 0.8 0.2 0.3 1.1 0.5 0.9 0.3 2.4 0.6 1.6 0.2 4.2 0.7 1.7 0.3 3.6 0.7 1.8 0.5 3.3 1.3 1.5 0.7 2.5 1.9 1 1.2 1.1 2.9 0 1.6-0.9 3-0.9 1.4-2.5 2.4-1.7 1.1-4.1 1.7-2.5 0.7-5.5 0.7zm1.3-11.3q-0.9 0-4.7-0.6-1.8 0.5-2.9 1.8-1.2 1.2-1.2 2.5 0 1.8 2.1 2.9 2 1.1 5.7 1.1c2.4 0 4.4-0.3 5.8-1.1q2.1-1.2 2.1-2.8 0-2.6-6.9-3.8zm-2.2-22.8q-2.9 0-4.5 1.7-1.6 1.7-1.6 4.4c0 1.8 0.6 3.4 1.7 4.5q1.8 1.7 4.5 1.7c1.8 0 3.4-0.6 4.5-1.8q1.6-1.8 1.6-4.6c0-1.8-0.6-3.3-1.7-4.4q-1.7-1.5-4.5-1.5zm42.8 18.4l-0.7 3.6h-0.4q-1.5 0-2.6-0.2-1.1-0.2-1.8-0.6-0.7-0.4-1.2-1.1-0.5-0.7-1-1.7-3.3 3.6-7.9 3.6-3.7 0-5.8-2-2.2-2-2.2-5.2 0-2.5 1.5-4.2 1.4-1.6 3.7-2.6 2.2-1 4.9-1.5 2.8-0.4 5.4-0.5 0-3.3-1.4-4.4-1.3-1.2-4.3-1.2-3.4 0-6.8 2.2l-0.7-3.7q3.5-2.5 8.8-2.5 2.5 0 4.2 0.6 1.8 0.6 2.8 2 1.1 1.4 1.6 3.6 0.5 2.3 0.5 5.6v5q0 2.9 0.5 4 0.6 1.1 2.5 1.1h0.4zm-8.1-3.3v-5.8q-5.7 0.2-8.2 1.4-2.4 1.2-2.4 4 0 3.8 4 3.8 1.9 0 3.6-0.9 1.8-0.9 3-2.5z"/></svg>